<svg id="Layer_1" data-name="Layer 1" xmlns="http://www.w3.org/2000/svg" viewBox="0 0 200 200"><defs><style>.cls-1{fill:#49b39d;}.cls-2{fill:#fff;}</style></defs><title>css-icon</title><circle class="cls-1" cx="100" cy="100" r="100"/><path class="cls-2" d="M79.42,138.08q0,7,4,10.12t11.72,3.28V161q-13-.14-20.1-5.95t-7.11-16.34V118q0-7.11-4.31-10.15t-12.51-3V95.21Q60,95.08,64,91.93t4-9.71V61.31q0-10.6,7.38-16.47T95.15,39v9.5q-15.72.41-15.72,13.6V82.23q0,14.7-15.24,17.36v0.82q15.24,2.67,15.24,17.36v20.3Z"/><path class="cls-2" d="M135.68,99.59q-15.24-2.67-15.24-17.36V62.06q0-13.19-15.52-13.6V39q12.58,0,19.79,5.95t7.21,16.41V82.23q0,6.63,4,9.74t12.92,3.25v9.64q-8.34,0-12.65,3T131.92,118v20.71q0,10.46-7,16.3t-20,6v-9.57q7.59-.14,11.55-3.28t4-10.12v-20.3q0-7.79,3.76-11.89t11.48-5.47V99.59Z"/></svg>