<svg id="Layer_1" data-name="Layer 1" xmlns="http://www.w3.org/2000/svg" viewBox="0 0 200 200"><defs><style>.cls-1{fill:#49b39d;}.cls-2{fill:#fff;}</style></defs><title>css-icon</title><circle class="cls-1" cx="100" cy="100" r="100"/><path class="cls-2" d="M67.49,119.74q0-13-18.62-13V93.35q9.45,0,14-3.18t4.58-9.69V58.71q0-10.92,7.59-16.06T97.87,37.5V50.24q-8,.35-11.58,3.25t-3.6,8.64V82.92q0,13.93-16,16.66v0.84q16,2.52,16,16.59v20.93q0,5.74,3.57,8.68t11.62,3.08V162.5Q81.7,162.36,74.59,157t-7.1-17.32V119.74Z"/><path class="cls-2" d="M133.49,141.22q0,10.92-7,16t-22.29,5.25V149.69q6.65-.07,10.36-2.69t3.71-9.06V119.6q0-8.47,3.71-13.09t12.32-6.09V99.58q-16-2.73-16-16.66V62.14q0-5.74-3.18-8.64t-10.88-3.25V37.5q15.61,0,22.43,5.35t6.82,17.53V80.47q0,7,4.44,9.94t13.19,2.94v13.37q-8.61,0-13.12,3t-4.51,10v21.49Z"/></svg>