<svg id="Layer_1" data-name="Layer 1" xmlns="http://www.w3.org/2000/svg" viewBox="0 0 200 200"><defs><style>.cls-1{fill:#49b39d;}.cls-2{fill:#fff;}</style></defs><title>js-icon</title><circle class="cls-1" cx="100" cy="100" r="100"/><path class="cls-2" d="M32.45,142.79A22.43,22.43,0,0,1,25,141.73v-7.87a22.9,22.9,0,0,0,5.88.76q6.35,0,6.35-7.2V75.16h9.95V128.1q0,7.24-3.79,11T32.45,142.79Zm4.19-80a5.51,5.51,0,0,1,1.46-4.11,5.69,5.69,0,0,1,4.17-1.44,5.57,5.57,0,0,1,4.08,1.44,5.51,5.51,0,0,1,1.46,4.11,5.4,5.4,0,0,1-1.46,4,5.52,5.52,0,0,1-4.08,1.46,5.64,5.64,0,0,1-4.17-1.46A5.4,5.4,0,0,1,36.64,62.75Z"/><path class="cls-2" d="M98.14,105.16q0,8.25-6,13t-16.46,4.7q-10.5,0-17.18-3.26V110a46.64,46.64,0,0,0,9,3.13,38.13,38.13,0,0,0,8.87,1.14q6,0,8.87-2.29a7.45,7.45,0,0,0,2.86-6.14A7.69,7.69,0,0,0,85.48,100q-2.63-2.41-10.84-5.71-8.47-3.43-11.94-7.83a16.56,16.56,0,0,1-3.47-10.58q0-7.75,5.5-12.19T79.51,59.2a43.41,43.41,0,0,1,17.69,3.89L94,71.35q-8.25-3.47-14.73-3.47-4.91,0-7.45,2.14a7,7,0,0,0-2.54,5.65,8,8,0,0,0,1,4.13A10.37,10.37,0,0,0,73.63,83,56.45,56.45,0,0,0,82,87a45.91,45.91,0,0,1,10,5.29,15.58,15.58,0,0,1,4.66,5.54A16.68,16.68,0,0,1,98.14,105.16Z"/><path class="cls-2" d="M105.42,98.22a65.58,65.58,0,0,1,3.28-21,52.16,52.16,0,0,1,9.46-17.14h8.68a60.51,60.51,0,0,0-9,17.84,66.49,66.49,0,0,0-3.13,20.21,64.68,64.68,0,0,0,3.13,20,60.42,60.42,0,0,0,8.93,17.52h-8.59a49.88,49.88,0,0,1-9.48-16.8A63.87,63.87,0,0,1,105.42,98.22Z"/><path class="cls-2" d="M153.41,98.22A63.8,63.8,0,0,1,150.13,119a49.62,49.62,0,0,1-9.46,16.72h-8.59a60.75,60.75,0,0,0,9-17.56,64.71,64.71,0,0,0,3.11-20A66.25,66.25,0,0,0,141,77.93a61.24,61.24,0,0,0-9-17.84h8.68a51.94,51.94,0,0,1,9.48,17.21A65.91,65.91,0,0,1,153.41,98.22Z"/><path class="cls-2" d="M173.69,111.89l0.63,1a142.33,142.33,0,0,1-7.45,20.27h-7.32a208.38,208.38,0,0,0,4.36-21.25h9.78ZM162.43,80.53q0-6.39,6.26-6.39a6.16,6.16,0,0,1,4.74,1.69,7.8,7.8,0,0,1-.06,9.46,7.11,7.11,0,0,1-9.33,0A6.76,6.76,0,0,1,162.43,80.53Z"/></svg>